<?xml version="1.0" encoding="utf-8"?>

<!DOCTYPE svg PUBLIC "-//W3C//DTD SVG 1.1//EN" "http://www.w3.org/Graphics/SVG/1.1/DTD/svg11.dtd">
<svg version="1.1" id="Layer_1" xmlns="http://www.w3.org/2000/svg" xmlns:xlink="http://www.w3.org/1999/xlink" x="0px" y="0px"
	 viewBox="0 0 1762.849 1660.642" enable-background="new 0 0 1762.849 1660.642" xml:space="preserve" fill="white">
<path d="M1630.832,1034.817c-115.991-119.108-301.76-141.069-443.731-46.428c-4.498-1.789-7.654,2.889-12.85-2.655
	c-3.478-3.713-1.688-1.893-24.519-3.284c-3.722-9.556-6.147-19.263-6.909-32.241c-0.415-7.06-1.359-3.913,5.958-46.501
	c1.8-9.833,3.522-20.081,6.119-29.938c0.588-2.146,1.201-6.159-1.276-8.922c-3.113-4.034-10.909-0.629-12.011-3.077
	c7.44-26.149,45.762-162.953,46.179-164.442c1.547-5.215,9.458-13.479,16.119-15.325c2.984-0.482,6.118,0.343,9.178-0.462
	l0.143-0.037c1.701-6.737-2.406-13.246,0.635-19.323c8.412-0.993,14.199-1.899,31.253-36.424l0.037-0.075
	c31.913-2.821,37.352-0.579,40.013,16.641c0.308,1.996,0.628,4.061,1.16,6.013c0.648,1.71,2.471,3.202,4.436,3.202
	c2.078,0,2.913-1.374,3.707-3.228c3.476-9.436,20.865-43.987,8.843-45.884c-33.692-4.962-54.588-7.142-89.563-6.961
	c-6.371,0.045-13.11-0.368-19.627,0.549c-24.371,3.103-56.585,8.313-78.023,6.935c6.637-5.93,12.864-13.307,19.725-24.196
	c33.866-54.202,8.762-120.475-33.748-168.21c-1.413-1.761-3.813-2.572-6.594-2.251c-0.727-0.915-1.705-2.354-2.94-4.175
	c-35.88-52.884-39.411-17.895-78.592-61.858c-5.573-6.292-48.124-34.427-64.278-37.319c-16.786-3.007-43.982-29.149-63.874-34.411
	c-12.469-3.471-39.804-12.586-54.007-22.246c-18.409-12.312-51.037-36.639-59.028-39.042l0.01-0.031
	c-0.18-0.031-0.494-0.094-0.495-0.093c-4.91-1.046-36.071-12.147-76.354-14.947c-7.441-1.147-36.694-1.454-50.284,0.184
	c-5.272,0.057-10.445,1.187-15.673,1.633c-25.523,3.907-34.124,6.956-48.374,12.008l-2.764,0.985
	c-4.233-0.514-8.293,0.833-12.217,2.141c-4.304,1.43-6.107,1.928-7.141,3.706c-2.342,3.574-4.7,7.51-7.041,11.743
	c-3.368-0.733-6.357-2.105-9.724-2.216c-1.089-4.263-0.203-8.691,0.698-12.068c0.399-1.494,1.109-3.286,2.577-3.59
	c8.47-2.467,10.245-7.379,11.592-9.966c3.557-6.818,3.868-8.897,3.3-12.795c-0.395-2.709-0.475-2.871,0.975-4.787
	c1.471-1.945,2.131-3.225,0.105-6.731c-1.199-2.075-1.866-3.07-0.315-9.962c0.993-4.41,1.18-4.79-0.936-7.423
	c-5.315-6.619,4.827-4.303,4.579-25.99c0.535,0.681,0.27,0.361,0.891,1.108c1.137-4.6-0.112-8.111-3.57-17.327
	c-4.763-12.696-2.728-7.346-7.381-22.21c-1.02-5.426-5.382-13.167-4.816-12.167c-9.495-16.779-17.976-14.964-21.095-22.657
	c-1.956-6.956,2.918-14.521-4.872-16.648c-0.747-0.1-2.346,0.335-3.061,0.531c-3.191,0.872-5.296,1.566-11.686-6.254
	c-3.029-3.704-3.642-4.018-3.642-4.018c-2.657-0.857-5.527-0.623-7.988-0.28c-1.718,0.265-3.171,1.182-4.576,2.07
	c-4.065,2.567-5.021,2.721-9.732-0.229c-7.33-4.586-10.328-1.859-24.722-2.017c-9.913-0.105-17.734,1.099-25.181,8.129
	c-3.758,3.547-4.997,4.071-9.745,5.094c-4.654,1.003-5.851,1.889-5.851,1.889c-13.615,7.448-14.1,8.304-21.434,13.599
	c-9.55,6.891-7.385,6.729-14.464,8.194c-5.23,1.082-12.391,2.563-21.187,11.176c-2.328,2.487-3.964,5.519-5.547,8.451
	c-2.381,4.414-3.044,4.967-4.612,12.809c-1.924,9.635-2.582,11.411-16.221,23.77c-10.528,9.54-16.047,14.684-20.358,28.857
	c-0.302,0.992-0.563,1.849-0.837,2.596c-2.57,6.728-2.193,50.99-0.034,60.577c0.629,2.675,2.642,4.625,4.22,6.677
	c1.652,2.115,1.783,5.097,3.526,7.28c7.063,8.893,11.598,4.122,14.765,8.028c0.322,0.927,0.414,1.942,0.503,2.924
	c0.868,9.568,7.266,3.149,19.231-0.076c2.324,4.12,5.624,10.27,6.989,21.732c0.592,4.974,1.467,9.407,1.44,9.242
	c-1.043,21.626-2.089,32.382,3.287,33.211c6.818,1.019,13.237-2.355,19.621-3.816c4.778-1.065,5.431,2.022,6.146,5.506
	c0.782,3.807,1.49,4.501,1.49,4.501c3.472,1.695,6.768-0.705,9.947-1.83c2.642,1.755,5.473,3.895,6.04,7.018
	c0.108,5.175-1.959,10.851,0.66,15.857l0.064,0.123c1.323,0.098,2.403,0.061,3.826,0.006c6.78-0.262,6.732,0.337,6.842,4.902
	c-0.399,5.06,2.668,11.324,7.291,14.892c6.457,4.984,10.172,1.7,17.965-2.192c3.677-1.828,6.454-4.991,10.039-6.855
	c3.409-1.831,7.04-3.952,10.848-5.542c-0.102,1.029-0.135,1.573-0.165,2.245c5.008,0.642,10.135,1.13,15.183,0.27
	c1.647-0.205,1.895-1.868,2.605-3.579l-0.067,0.007c0.57-2.385,1.064-5.829,1.49-9.91c5.452-3.396,3.229-3.829,15.861-0.74
	c5.03,1.229,10.579,2.584,14.821,3.069l1.231,0.611c-0.44,4.116-0.767,8.352-0.922,12.489c15.116,5.469,13.653-0.238,17.835-1.292
	c5.112-1.462,12.069-0.128,14.883,5.226c1.958,3.88,3.73,7.866,5.697,11.799c1.434,9.459,16.766,67.253,43.917,86.151
	c2.389,1.757,10.957,6.772,23.756,9.447c4.536,99.715,6.746,68.684,0.943,87.836c-11.778,33.938-26.17,81.787-34.834,102.253
	c-6.304,13.56-17.483,45.696-29.3,76.91c-6.39-0.998-13.181-2.063-19.896-3.167c-14.833-11.689-19.823-12.152-26.726-12.791
	c-10.043-0.931-16.476-3.525-44.417-0.026c-3.807,0.52-7.86,0.768-11.374,2.644c-5.089,2.724-6.337,1.997-20.72,2.588
	c-42.986,1.767-47.973,0.435-62.822-22.51c-2.961-4.575-5.102-7.883-7.419-8.058c-16.476-2.457-24.773,1.655-34.114,16.906
	c-6.483,3.55-5.066,7.658-4.027,10.661c0.434,1.252,0.598,1.98,0.598,1.98c0.238,0.908,0.587,1.804,1.357,2.438
	c16.558,15.5,17.254,17.296,17.34,20.208c1.283,17.895,1.479,35.155,5.155,42.007c7.065,12.906,7.06,39.267,7.058,50.524
	c-0.01,19.255-3.478,22.327-4.989,26.57c0.745,2.864,4.279,4.044,6.528,2.552c3.404-2.103,5.184-5.855,7.382-8.981
	c5.467-8.627,11.593-17.3,15.394-27c1.9,13.351,3.378,26.794,4.396,39.948c-0.047,2.062,0.666,4.506-0.825,6.125
	c-2.26,2.676-4.903,5.35-6.307,8.736c-1.779,4.2,2.37,6.356,6.93,2.694c13.871-11.138,21.598-21.731,21.284-39.763
	c-0.35-13.502,1.455-15.128-10.182-24.02c-2.185-1.67-4.444-3.396-6.291-5.393c-3.24-5.431-4.889-16.613-2.173-24.626
	c0.498-2.131,12.442-6.34,23.166-4.647c1.55,0.661,1.828,2.309,2.095,3.906c1.531,9.135,5.772,17.904,13.912,22.149
	c-6.205,5.528-10.792,9.923-13.561,12.817c-5.66,6.053-7.338,6.819-3.616,12.522c5.021,6.883,9.586,9.301,15.608,11.319
	c4.437,1.493,4.893,2.135,3.497,10.924c-2.008,12.622,0.64,9.375,11.486,11.197c-0.808,45.55,19.551,71.292,27.224,80.992
	c0.422,0.533,0.8,1.012,1.143,1.452c-98.545-27.636-210.051-8.339-295.669,53.408c-146.682,105.538-188.165,304.563-98.488,459.234
	c62.564,107.907,177.179,174.26,301.646,174.237c166.237,0,305.662-116.032,340.852-272.217
	c30.254-134.277-20.404-278.824-140.328-363.675c1.071-1.69,1.508-3.002,1.716-4.341c-2.562-1.457-4.759-2.351-7.752-3.555
	c-2.666-1.072-3.904-1.91-6.907-0.948l-0.159,0.051c-2.341-1.47-4.577-2.832-6.407-3.898c3.281-3.909,6.658-7.436,9.866-11.219
	c1.109-1.334,2.476-2.554,4.053-3.64c46.695,52.909,233.25,267.381,296.462,341.356c-0.585,1.133-1.19,2.36-1.799,3.659
	c-2.821,0.286-5.438,0.359-8.411,0.749c-0.169,0.876-0.236,1.22-0.378,2.136c2.194,1.602,6.008,3.983,5.859,3.888
	c-0.593,1.967-1.254,3.862-1.834,5.479c-2.944,0.465-5.66-0.062-8.597,1.428c1.132,3.273,4.346,3.786,6.616,5.659
	c-0.317,1.723-0.66,3.279-1.046,4.748c-2.17,0.629-4.467,1.083-6.533,1.951c-1.164,0.327-1.105,2.083-0.066,2.603
	c1.758,0.922,3.698,1.521,5.547,2.276c-0.101,1.815-0.273,3.748-0.536,6.053c-1.765,0.633-4.179,1.531-5.414,1.997
	c-0.086,0.567-0.238,1.473-0.336,2.066c1.702,0.746,3.446,1.417,5.501,2.074c0.165,2.549,0.218,4.834,0.162,6.972
	c-6.936,2.158-5.228,1.711-6.052,3.97c1.52,0.724,3.126,1.394,6.587,2.423c0.525,2.171,0.844,4.423,1.148,6.608
	c-1.471,0.884-2.132,1.256-5.206,3.07c0.105,0.848,0.173,1.273,0.328,2.162c2.089,0.395,6.303,1.092,6.227,1.079
	c0.599,1.837,1.136,3.729,1.599,5.627c-1.724,0.986-3.071,1.785-4.366,2.573c-0.113,0.627-0.223,1.283-0.329,1.926
	c2.286,0.979,4.279,1.115,6.726,1.459c0.792,1.539,1.425,3.138,1.883,4.754c-1.287,1.17-2.619,2.487-3.864,3.755
	c0.16,0.59,0.362,1.338,0.511,1.928c2.815,0.014,6.239-0.233,6.113-0.225c1.28,2.386,2.708,4.663,3.824,7.108
	c-1.554,1.602-3.474,2.577-3.537,5.173c2.514,0.599,4.373,0,6.713-0.053c1.859,1.26,2.943,3.513,4.358,5.347
	c-1.078,1.255-2.009,2.372-2.988,3.627l0.517,1.949c2.202-0.156,3.948-0.445,6.506-0.922c1.269,1.171,2.587,2.495,4.024,4.042
	c-0.832,2.246-2.369,3.906-1.707,6.6c2.488-0.259,4.062-1.347,6.205-2.4c1.205,0.865,2.482,1.858,3.894,3.027
	c-0.828,2.315-1.911,3.985-1.714,6.6c2.874,0.14,4.575-1.605,6.82-2.757c0.301,0.15,0.57,0.305,0.852,0.458
	c-4.2,3.005-39.634,32.829-67.023,36.138c-5.411,0.681-9.836,4.014-11.278,8.501c-2.636,6.333,2.294,16.81,7.717,21.765
	c5.675,5.267,10.007,6.068,25.205,7.67c32.209,3.395,40.771,2.024,50.011,0.73c-0.797,3.965,5.722,9.127,12.827,11.977
	c3.771,1.532,8.447,1.64,12.847,0.15c6.573-2.217,7.197-7.647,7.284-13.408c19.136,3.662,19.546-1.238,20.223-11.704l0.044-0.666
	c2.495-1.3,5.096-2.483,7.614-3.626c7.751-3.518,13.881-7.154,25.506-9.659c38.631-7.122,38.111-4.94,57.36-6.445
	c9.581-0.889,18.059-4.686,23.855-10.675c0.81-0.687,1.184-1.729,1.155-3.17c1.677-2.549,2.907-4.262,4.017-5.985
	c1.114,2.283,2.499,4.449,3.85,6.544c134.944,209.622,431.475,213.718,574.84,19.815
	C1764.346,1350.912,1750.656,1157.584,1630.832,1034.817z M628.628,452.137c0.007,0.095,0.014,0.189,0.022,0.284
	C628.622,452.282,628.62,452.298,628.628,452.137z M374.734,780.755c-3.866,0.329-7.295-3.183-7.801-6.625
	c-0.785-4.662-0.764-9.487-0.743-14.154c0.048-10.288,0.292-8.243,1.645-18.821c1.416,0.426,3.006,0.861,4.742,1.307
	c-1.709,3.199-4.157,6.889-2.152,10.436c2.448,5.021,3.28,11.775,4.133,18.077C374.995,774.198,375.447,777.529,374.734,780.755z
	 M511.257,760.553c2.039,1.082,4.559,1.379,7.695,0.891c7.63-1.129,13.542-2.968,18.595-5.776c1.072,3.888,2.056,7.609,5.29,10.01
	c-2.845,6.212-5.569,11.639-8.097,15.948c-7.739-0.061-13.241,0.447-17.264,0.816c-2.334,0.214-4.109,0.375-5.451,0.344
	C508.935,775.29,508.66,767.215,511.257,760.553z M509.137,758.086c-3.152,7.014-3.357,15.699-0.564,23.852l-0.186,0.689
	c-3.41,0.64-5.362,0.443-27.164,1.645c5.504-8.536,11.706-16.664,17.518-25.076c3.34-0.358,6.754-0.595,9.133-3.123
	C508.272,756.765,508.69,757.441,509.137,758.086z M500.537,734.368c1.05,3.525,2.01,7.882,3.43,12.382
	c-0.695,1.052-1.195,1.839-1.444,2.247c-6.37-0.014-20.452,0.738-26.051-0.239c2.441-5.279-0.5-7.209-7.194-11.714
	C478.308,733.556,489.207,733.653,500.537,734.368z M464.928,773.289c1.925-5.612,7.845-8.63,12.112-10.405
	c4.21-1.378,7.3-1.746,17.557-3.128c-5.489,8.493-11.622,16.383-17.228,24.732c-4.01,0.227-8.591,0.496-13.882,0.819
	C462.758,782.307,462.705,779.694,464.928,773.289z M451.611,868.307c2.555,2.111,3.168,2.035,5.145,2.198
	c4.828,0.4,9.82,0.814,14.727,0.152c2.61,0.731,4.647,3.245,7.499,3.74c3.162,1.143,6.318-0.338,9.32-0.642
	c3.773,0.242,6.585,3.454,10.795,3.329c0.473-0.744,0.988-1.516,1.483-2.237c4.892,9.349,11.462,16.55,21.875,14.579
	c8.935-1.882,11.766-16.449,12.242-19.348c0.531-3.075-0.392-6.102-0.733-9.058l0.731-0.232c3.875,0.599,7.823,1.005,11.664,1.896
	c-3.636,9.74-27.479,56.018-26.515,64.736c0.217,3.411,1.86,6.794,4.898,10.091c-4.463,6.239-8.576,12.835-12.633,19.126
	c-9.471-3.872-21.52-7.956-25.621-9.301C479.108,939.327,453.523,916.01,451.611,868.307z M494.125,1118.863
	c1.666-3.436,3.833-6.688,6.058-10.13c32.484-49.056,28.03-44.86,32.271-45.665l-0.002-0.015c2.116-0.193,9.936-1.835,11.232-2.039
	c-4.627,6.905-56.053,77.286-64.994,88.989C483.523,1139.497,489.099,1129.252,494.125,1118.863z M424.563,1173.711
	c8.762-27.676,51.129-154.794,53.21-161.037c2.451,0.701,4.855,1.622,7.153,2.743
	C482.724,1021.319,435.137,1146.789,424.563,1173.711z M525.012,1062.585l0.003,0.006c0.235,1.967-0.511,2.231-7.477,13.01
	c-2.493,3.857-4.397,6.804-5.852,8.556c0.473-1.463,19.793-40.39,21.821-43.57l1.035,0.964
	C528.724,1051.329,524.645,1058.565,525.012,1062.585z M474.181,1011.346c-3.868,12.528-78.833,238.83-84.757,254.854
	c-1.001-0.013-2.467,0.005-5.552-0.375c-0.194-9.275,3.82-260.089,4.325-270.16C393.615,995.329,432.559,996.463,474.181,1011.346z
	 M464.43,1553.314c-21.308,6.942-45.095,11.115-70.712,12.405c-0.654-9.603-9.119-246.53-9.154-256.203
	c1.437-0.081,2.827-0.035,4.144,0.141C415.718,1396.73,460.444,1540.089,464.43,1553.314z M384.454,995.738
	c-0.36,10.727-2.798,174.777-3.547,211.846c-1.72-42.524-5.499-153.624-7.611-211.871
	C377.612,995.434,381.172,995.441,384.454,995.738z M362.938,996.116c2.171-0.13,4.412-0.265,6.618-0.471
	c0.349,9.355,9.065,248.427,9.52,270.135c-6.844-20.554-77.745-249.243-80.345-257.661
	C305.045,1005.657,332.864,997.92,362.938,996.116z M226.685,1042.297c31.161-20.803,62.508-31.802,68.363-32.955
	c2.672,8.315,78.813,251.641,80.543,259.349c-0.988,0.501-1.792,0.927-2.807,1.411c-4.535-5.221-151.54-213.729-156.155-220.552
	C219.661,1046.764,223.345,1044.698,226.685,1042.297z M213.351,1051.77c5.393,7.493,148.705,209.762,155.964,221.135
	c-2.091-0.604-215.686-157.81-216.697-158.567C169.253,1090.658,189.684,1069.609,213.351,1051.77z M150.419,1117.613
	c6.638,4.629,187.175,136.922,216.438,158.414c-0.498,0.949-1.043,2.024-1.533,3.008c-4.091-0.883,7.405,2.528-252.465-84.34
	C116.232,1180.034,136.973,1133.561,150.419,1117.613z M111.611,1198.351c7.134,1.913,164.21,54.588,192.587,64.521
	c-29.303-7.714-188.754-52.422-195.159-54.26C109.305,1205.09,110.67,1201.696,111.611,1198.351z M99.926,1272.088
	c0.391-27.459,6.241-54.094,8-59.775c8.744,2.402,246.542,68.3,255.767,71.319c-0.034,0.061-0.042,0.076-0.082,0.15
	c-34.904-0.006-255.816-1.026-264.023-1.239C99.412,1279.063,99.751,1275.545,99.926,1272.088z M99.983,1286.65
	c14.379-0.291,170.129,0.349,206.121,0.789c-36.516,1.786-198.153,9.641-205.971,9.684
	C100.007,1293.559,99.86,1290.071,99.983,1286.65z M100.721,1301.101c8.267-0.717,254.479-12.269,262.385-12.564
	c0.082,0.26,0.279,0.867,0.37,1.15l0.014-0.002c0.026,0.345,0.082,0.606,0.138,0.953c-44.019,14.089-242.059,77.414-249.614,79.595
	C103.879,1340.109,100.385,1308.525,100.721,1301.101z M115.289,1373.975c8.585-2.899,241.402-77.333,249.016-79.613
	c0.377,0.66,0.523,0.893,0.818,1.542c-6.162,5.046-203.538,147.667-210.994,153.052
	C134.619,1422.409,121.295,1392.881,115.289,1373.975z M156.685,1452.227c0.103-1.13,208.778-151.596,210.523-152.776
	c0.398,0.574,0.799,1.155,1.206,1.751c-25.624,35.161-146.487,200.7-153.167,209.397
	C191.261,1495.307,156.503,1454.169,156.685,1452.227z M226.827,1519.11c-0.091-0.154-0.126-0.243-0.279-0.362
	c-2.835-1.686-5.546-3.661-8.299-5.71c1.833-2.557,121.283-166.293,123.905-169.444
	C341.349,1344.975,228.248,1518.348,226.827,1519.11z M230.546,1521.078c4.548-6.973,136.908-209.843,141.743-216.313
	c1.629,1.062,2.387,1.523,2.892,1.77l-0.012,0.025c0.227,0.146,0.637,0.409,0.924,0.591c-2.101,7.339-78.326,236.48-81.15,244.841
	C271.437,1545.383,235.361,1525.865,230.546,1521.078z M298.664,1553.211c0.532-2.08,78.789-238.538,80.454-242.74
	c-0.059,18.876-3.612,240.163-4.114,255.386C344.135,1565.173,315.394,1558.897,298.664,1553.211z M382.238,1353.342
	c1.581,36.1,6.575,187.501,7.669,212.434c-3.713,0.232-7.476,0.237-11.194,0.018C379.31,1543.903,381.543,1388.641,382.238,1353.342
	z M387.041,1629.909c32.664-0.59,65.129-5.759,96.375-15.331C452.293,1624.156,419.851,1629.364,387.041,1629.909z M536.1,1519.374
	c-32.65,21.706-63.711,31.768-67.966,32.736c-3.077-8.599-73.445-235.18-75.658-243.605c0.612-0.153,1.299-0.311,1.921-0.455
	c5.806,7.796,138.688,196.054,146.723,207.64C539.68,1517.181,537.827,1518.224,536.1,1519.374z M544.359,1513.519
	c-5.645-7.484-141.162-199.686-146.272-206.977c1.525-1.092,3.084-2.322,4.735-3.275c1-0.61,203.07,148.219,203.886,149.112
	C581.298,1486.848,550.992,1509.433,544.359,1513.519z M609.06,1449.068c-7.788-5.357-197.15-144.483-203.349-149.041
	c0.285-0.941,0.676-1.889,1.165-2.821c9.954,3.057,230.767,77.026,239.876,80.352C633.749,1414.975,613.05,1444.247,609.06,1449.068
	z M648.032,1373.853c-6.823-2.207-166.397-55.397-194.073-65.086c28.721,7.427,190.891,53.031,197.245,54.937
	C650.576,1367.126,649.351,1370.46,648.032,1373.853z M658.185,1336.197c-0.207,0.834-0.389,1.379-1.002,1.379l-0.016,0.072
	c-2.463-0.728-6.101-0.955-10.959-1.911c0.079,1.038,0.147,1.889,0.248,2.956c3.001,0.457,4.321,0.918,10.09,2.227
	c0.119,0.086,0.455,0.33,0.567,0.412c-1.406,6.35-2.73,12.649-4.776,18.602c-87.675-24.22-234.149-65.252-243.532-67.651
	c0-0.001,0.334-2.458,0.643-4.331c8.411-0.432,240.563,0.649,253.65,0.712C663.773,1302.935,659.36,1331.424,658.185,1336.197z
	 M663.218,1284.96c-10.017,0.08-203.292-0.709-210.931-0.737c11.054-0.593,187.006-8.982,210.832-10.05
	C663.564,1278.414,663.596,1281.855,663.218,1284.96z M663.075,1270.485c-85.37,4.035-168.33,8.022-250.638,11.923
	c0.584-1.583,1.022-3.401,2.393-4.329c1.174-0.376,236.05-75.573,237.573-75.97C656.758,1212.984,664.081,1257.061,663.075,1270.485
	z M651.423,1198.415c-17.177,5.71-220.746,70.717-234.348,74.959c0.23-1.102,0.538-2.184,0.911-3.226
	c4.496-2.285,12.422-6.55,16.279-9.435c3.025-2.258,4.412-3.299,2.61-11.391c0.166-0.241,0.53-0.78,0.678-0.993
	c89.004-64.393,171.927-124.56,176.959-127.988C629.332,1141.216,643.793,1171.804,651.423,1198.415z M612.363,1117.255
	c-175.589,127.085-177.238,129.186-181.031,129.624c-0.421-0.064-0.431-0.167-1.015-0.222c3.985-8.527,31.866-63.823,33.915-68.188
	c4-8.514,2.772-5.907,88.81-123.694C559.093,1058.262,591.144,1085.391,612.363,1117.255z M881.86,777.202
	c0.231,11.178-0.519,13.533-0.642,42.581c-5.148-4.44-11.654-9.591-17.07-13.79c-35.83-26.781-59.212-33.669-70.445-37.691
	c32.595-4.676,66.789-18.787,88.352-29.248c-1.19,12.081-1.087,25.692-1.272,33.038C880.738,773.872,880.697,775.709,881.86,777.202
	z M687.346,637.008c1.505-6.145,1.984-7.42,5.845-14.419c5.064-9.18,10.803-19.584,5.275-38.424
	c0.862-6.101,8.525-30.389,10.051-70.044c0.053-1,0.362-10.899,0.88-19.588c3.802,0.579,7.698,0.492,11.467,0.407
	c17.755-0.406,15.032-5.295,33.032-1.195c15.189,3.442,22.608,8.069,36.531,17.58c18.632,12.725,21.434,14.618,44.749,14.533
	c4.996-0.019,5.21,0.126,11.434-0.769c9.116-1.311,9.351-0.899,11.831,0.672c6.695,4.248,8.239,5.069,10.529,6.974
	c-45.752,26.894-91.729,58.701-96.954,63.028c-39.258,32.522-87.006,86.891-119.546,125.844
	c-6.598,7.745-11.119,16.142-13.55,25.086c-2.176-2.037-4.522-3.825-6.983-5.322C645.433,728.331,682.92,655.078,687.346,637.008z
	 M654.196,809.475l0.047,0.005c0.159-1.014,0.252-1.998,0.381-3.065c7.721,8.098,14.282,15.911,36.374,29.623
	c-6.478,0.048-34.135-2.653-39.944-3.469C653.003,820.421,654.039,813.611,654.196,809.475z M648.358,830.817
	c-2.066-0.924-4.087-2.085-6.163-3.538c5.01-25.632,3.637-25.423,4.564-31.611c1.79,2.287,3.194,4.719,5.015,7.133
	C651.126,812.53,649.978,821.953,648.358,830.817z M602.598,808.106c0.56-9.611,3.884-19.338,11.177-25.675
	c11.973-4.949,18.958-18.553,23.069-20.729c0.841,15.824,3.462,19.982,7.048,29.108c-0.301,10.727-1.617,21.745-3.916,32.763
	c-0.47,2.883-3.112,4.591-5.058,6.789C616.157,825.11,611.646,814.923,602.598,808.106z M777.646,1076.509
	c-0.899-1.862-2.202-4.922-4.903-10.868c0.957-0.988,2.058-2.009,3.424-3.182C782.573,1067.638,779.46,1069.426,777.646,1076.509z
	 M954.233,1254.637c-1.939,0.129-3.938,0.258-5.91,0.209c-1.158-2.447-2.23-4.49-3.386-6.526c-1.042-0.031-1.291-0.036-2.022-0.066
	c-0.885,2.668-1.116,4.977-1.586,7.69c-2.296,0.596-4.377,1.044-6.35,1.368c-1.291-1.802-2.609-3.504-3.461-4.612
	c-0.856,0.051-1.391,0.099-2.111,0.173c-0.256,2.173-0.329,3.916-0.41,6.216c-1.695,0.621-3.363,1.377-5.103,1.773
	c-3.135-1.572,0.376,2.163-72.64-82.287c4.869-0.923,9.754,0.987,14.72,0.358c4.409-0.599,8.793-11.493,10.211-15.71
	c16.361-13.803,14.708-12.889,25.124-22.353c6.739-6.122,9.008-8.185,8.82-11.932c0.058-15.652-8.889-19.543-20.643-33.564
	l0.004-0.006c-0.191-0.212-0.091-0.096-0.337-0.39l-0.007,0.01c-12.581-13.914-33.971-37.655-47.766-52.697
	c-0.477,0.375-0.804,0.635-1.57,1.283c0.466-0.471,0.997-0.988,1.476-1.449c-17.498-22.193-20.475,1.876-29.347-14.779
	c-3.155-6.064-2.878-7.394-2.099-11.308c2.256-11.314-4.467-9.195-8.134-9.794c-0.802-2.368-1.269-5.158-3.432-6.826
	c-3.995-3.186-10.039-3.304-13.76-0.271c-6.596,5.138-9.226,7.25-10.979,8.78c-0.791-2.409-2.341-4.268-4.413-5.258
	c-0.386-2.907-0.499-11.928-4.657-11.411c-1.098,0.332-4.125,3.035-4.975,3.806c-3.058-1.402-3.181-1.945-8.227,2.743
	c-5.715,5.308-4.495,4.241-4.033,8.407c-1.138,1.188-4.384,3.164-3.374,5.334c2.341,3.239,6.665,3.184,10.151,4.112
	c0.987,0.169,1.082,1.439,1.707,2.205c0.726,1.453,2.207,2.032,3.643,2.858c-2.45,2.236-3.548,3.508-8.198,8.062
	c-1.369,1.337-2.785,2.719-3.606,4.52c-1.61,3.687-1.433,7.864,0.465,10.907c1.498,2.281,4.135,3.247,6.42,4.452
	c0.053,0.637,0.043,1.326,0.033,2.052c-0.09,6.517,1.858,7.28,8.811,6.926c3.855-0.196,6.497-0.46,11.936,4.032
	c-2.037,0.314-7.72,0.669-8.613,3.562c-0.167,2.651,1.37,5.016,2.255,7.376c2.775,6.851,6.94,9.347,8.685,20.585
	c-74.239-86.11-149.702-174.031-150.799-176.575c-3.066-7.037-8.944-24.615,2.684-35.861c1.922-2.207-5.565-1.19,138.528,1.687
	c32.83,22.461,71.212,49.631,103.975,69.81c-0.05,5.82,0.956,11.042,1.637,16.75c2.422,16.459,1.376,21.675,26.687,78.031
	c2.218,5.218,5.485,9.919,7.836,15.035c15.355,32.173,17.176,71.665,22.184,92.728c1.157,4.459,2.262,9.014,3.33,13.419
	c1.43,5.897,2.909,11.994,4.536,17.951c-13.85,12.332-4.147,24.972,7.281,29.558c2.707,13.291,6.274,25.375,9.031,38.227
	L954.233,1254.637z M1642.973,1172.454c5.555,11.509,17.221,48.69,19.53,83.966c-101.259,10.408-182.347,18.208-192.519,19.673
	c-1.126-8.136-3.736-15.895-7.83-23.192C1463.429,1251.546,1641.193,1172.97,1642.973,1172.454z M1458.372,1320.731
	c-6.141-2.206-11.918-5.427-17.72-8.022c-4.389-2.282-7.926-3.348-12.267-6.065c2.991,0.462,0.123,0.017,2.782,0.434
	c0.159-2.195-1.345-2.931-2.312-4.348c0.361-0.726,0.723-1.444,1.094-2.151c1-0.126,2.1-0.225,3.25-0.498l0.017,0.032
	c0.229-0.089,0.142-0.061,0.487-0.15l-0.008-0.014c2.905-0.972,3.244-0.013,22.623,3.95c5.129,1.048,6.229,1.275,7.674,2.307
	C1462.588,1311.349,1460.691,1316.256,1458.372,1320.731z M1459.841,1325.866c0.439,0.206,172.666,81.447,172.863,81.89
	c0.275,0.616-0.383,1.761-0.67,2.375c-3.047,5.593-5.958,11.369-9.423,16.705c-1-0.533-164.377-96.102-164.747-97.361
	C1457.873,1329.461,1459.166,1327.147,1459.841,1325.866z M1415.877,1320.185c1.69,1.125,2.35,1.386,3.35,1.743
	c-0.07-1.67-0.361-3.142-1.339-4.679c0.714-0.681,1.407-1.276,2.113-1.811c1.826,0.96,2.957,1.367,3.957,1.715
	c-0.214-1.09-0.239-1.227-0.605-2.967c3.033,1.101,4.085,2.043,7.269,3.939c6.208,3.741,18.564,10.611,21.813,13.275
	c-1.11,1.784-2.273,3.521-3.277,4.79c-0.589-1.138-0.925-3.137-2.662-3.071c-6.201-0.08-7.551,5.82-10.572,10.236
	C1415.382,1319.761,1417.919,1324.807,1415.877,1320.185z M1433.151,1345.855c-3.43,0.973-7.531-0.824-9.295-4.14
	c-1.63-3.093-2.524-7.339-2.402-8.921C1425.034,1336.459,1428.675,1340.525,1433.151,1345.855z M1433.223,1267.91
	c-0.148-0.771-0.312-1.583-0.377-2.361c0.303-0.614,1.164-0.789,1.803-1.066c8.419-3.309,15.798-6.985,23.996-10.466
	c4.1,6.571,6.551,14.171,7.592,22.117c-2.439,0.364-25.231,2.99-29.037,2.545c-1-0.397-1.804-0.757-2.732-1.127
	c-0.175-1.882-0.344-3.88-0.38-5.884c1-0.694,0.602-0.403,3.016-2.09C1435.866,1268.197,1434.75,1268.322,1433.223,1267.91z
	 M1431.953,1256.434c-0.661,0.353-1.37,0.493-2.089,0.415c-0.682-0.519-0.919-1.51-1.341-2.269c0.761-1.203,1.162-1.776,2.103-3.279
	c-2.046-0.602-3.797,0.645-4.572-0.895c-1.106-1.363,0.597-2.883,8.764-10.082c1.793-1.581,3.645-3.214,5.425-4.873
	c3.934,2.807,7.745,6.117,11.379,9.91C1444.76,1249.197,1438.319,1252.528,1431.953,1256.434z M1423.184,1246.093
	c-0.516-0.488-0.611-0.574-1.282-1.212c0.702-2.049,0.927-2.991,1.162-3.991c-1,0.255-1.931,0.5-3.66,1.187
	c-0.816-0.671-1.778-1.323-2.314-2.228c-0.097-0.654-0.144-1.644-0.237-2.426l0.008-0.003c-0.346-2.396-0.334-1.957,0.922-4.229
	c1.305-2.362,2.663-4.792,4.532-6.781c4.934,1.523,9.807,3.784,14.53,6.758C1432.768,1237.995,1427.683,1241.174,1423.184,1246.093z
	 M1427.336,1311.802l0.233-0.988c7.532,2.915,19.448,9.276,28.954,13.317c-0.361,0.789-1.093,2.172-2.012,3.785
	C1445.516,1322.578,1436.248,1317.375,1427.336,1311.802z M1432.441,1294.596c2.494-0.63,3.11-0.895,4.177-1.362
	c-1.381-1.173-1.946-1.568-3.407-2.646l0.235-1.466c1.67-0.604,2.128-0.735,3.857-1.406c-1-0.818-1.771-1.42-3.022-2.235
	c-0.108-0.5-0.229-0.958-0.285-1.468c2.397-1.55,3.685-1.121,17.869-2.619c4.836-0.51,9.832-1.036,14.765-1.376
	c0.537,7.307-0.051,14.801-1.599,21.969C1463.987,1301.777,1434.961,1295.799,1432.441,1294.596z M1632.535,1149.128
	c3.197,6.516,6.464,13.05,8.978,19.747c-186.556,82.664-179.665,79.973-181.711,80.284c-0.544-0.762-1.143-1.558-1.81-2.387
	c-0.007-1.51-6.003,2.721,110.391-62.275C1605.128,1163.979,1629.752,1150.229,1632.535,1149.128z M1630.4,1145.569
	c-8.878,5.264-165.934,92.607-175.328,97.831c-3.16-3.424-7.167-7.085-11.887-10.46c6.989-6.294,147.742-132.824,153.597-137.456
	C1615.012,1116.695,1628.644,1141.089,1630.4,1145.569z M1594.137,1092.546c-101.432,91.291-148.94,133.146-153.933,138.357
	c-4.832-3.119-10.306-5.854-16.292-7.737c0.197-0.992-2.802,4.447,107.701-184.536
	C1560.77,1055.968,1590.674,1086.929,1594.137,1092.546z M1528.436,1036.536c-6.43,11.754-96.782,165.279-108.244,185.592
	c-6.963-1.702-14.545-2.193-22.58-0.785c2.047-10.363,48.091-210.294,49.846-217.907
	C1452.703,1003.881,1491.309,1013.743,1528.436,1036.536z M1443.759,1002.34c-1.79,8.206-48.436,214.595-50.958,220.015
	c-0.222,0.058-0.445,0.116-0.664,0.176c0.596-10.017,28.893-216.077,29.989-223.891
	C1426.181,998.67,1439.737,1001.443,1443.759,1002.34z M1371.474,995.843c9.113-0.852,28.777,0.358,31.567,0.441
	c0.099,6.811,0.309,7.554,0.296,11.937c0.868-0.284,1.541-0.496,2.819-0.854c-0.059-3.849,0.274-4.604,0.306-10.576
	c4.26,0.064,8.259,0.491,11.889,1.279c-1.658,14.389-29.433,216.253-30.386,225.775c-3.936,1.386-7.086,2.884-8.705,3.601
	l-0.29,0.042c-1.382-12.03-20.292-217.144-21.523-230.592C1362.056,996.124,1366.804,996.273,1371.474,995.843z M1373.748,1357.619
	c-0.233-3.473,0.623-6.936,1.018-10.271c0.787-5.301,1.256-10.784,2.416-16.061c0.646-0.836,1.431-1.823,2.355-3.008
	c0.729,0.045,1.466,0.109,2.164,0.174c0.626,1.869,0.84,2.638,1.643,4.767c0.644-0.944,0.65-0.951,1.242-1.8
	c0.152,0.455,0.308,0.913,0.478,1.381c-1.239,0.813-2.079,1.439-3.24,2.33C1388.507,1345.804,1381.526,1347.272,1373.748,1357.619z
	 M1369.401,1430.945c0.07,0.614,0.159,1.373,0.242,1.988c-2.587,3.595-0.651,8.234-1.813,12.089
	c-1.302,0.614-2.495,1.377-3.932,1.908c-1.165-0.005-1.535-0.027-2.509-0.037c0.463-4.638,7.057-54.362,8.648-62.785
	c2.687,8.768,4.453,9.269,6.449,10.181c1.254,0.572,2.439,1.113,3.009,2.393c1.578,3.318,2.082,7.413,1.581,12.901
	c-0.05,1.481-1.28,2.396-2.378,3.288c-2.553,1.686-1.881,5.062-2.91,7.485c-0.546,1.79-3.683,1.539-4.254,3.088
	C1371.13,1426.271,1372.461,1429.452,1369.401,1430.945z M1346.003,1257.458c-0.874,0.699-2.306,0.899-3.856,1.504
	c0.686,0.793,1.147,1.321,2.158,2.438c-0.073,0.338-0.178,0.838-0.258,1.226c-3.237-1.602-22.292-12.821-26.82-15.709
	c6.64-2.083,7.194-4.421,12.875-2.514c4.083,1.374,7.821,0.953,10.27-2.538c2.807,3.05,5.95,6.323,8.63,9.853
	c-0.261,0.419-0.505,0.823-0.725,1.215c-0.986-0.042-1.606-0.048-2.431-0.048C1346.088,1254.82,1346.834,1256.235,1346.003,1257.458
	z M1105.839,1224.228c3.936-19.799,9.982-39.017,17.973-57.13c7.263,3.07,147.738,69.582,155.196,73.477
	c-3.674,3.033-5.569,2.457-6.569,2.676c-2.563,0.595-4.251-2.261-6.911-2.268c-2.176,0.005-4.542-0.074-6.194,1.432
	c-1.237,0.988-2.354,2.412-4.037,2.345c-0.04-0.001-0.025-0.003-0.063,0.006c-2.811,0.594-4.886-2.275-7.755-2.099
	c-2.734-0.074-4.859,0.611-6.297,2.043c-1.543,1.591-4.208,1.898-6.338,0.725c-3.152-1.789-7.345-1.495-10.192,0.722
	c-2.953,2.226-6.845,1.03-8.378,0.414c-2.252-0.94-4.643-0.377-6.904-0.152C1206.637,1246.388,1111.193,1225.438,1105.839,1224.228z
	 M1193.245,1247.143c-1.587,0.221-2.921,0.696-4.03,1.458c-2.211,1.53-5.305,1.713-7.884,0.46c-3.349-1.563-7.145-1.315-9.676,0.634
	c-1.854,1.497-4.554,1.727-6.566,0.557c-2.326-1.388-5.258-1.674-8.069-0.773c-0.688,0.295-1.333,0.715-1.954,1.121
	c-6.051,3.95-8.101-1.249-12.26-0.63c-2.047-0.118-4.068,0.571-5.682,1.95c-1.408,1.228-3.362,1.176-5.22,1.19
	c-1.208,0.12-1.823-0.392-2.605-1.04c-1.298-1.075-2.916-2.412-7.85-1.508c-2.661,0.414-3.682,3.778-6.311,3.486
	c-1-0.081-1.1,0.492-3.326-1.079c-1.827-1.293-4.104-2.887-10.339-0.538c0.849-8.495,2.551-20.256,3.723-24.419
	C1111.58,1229.278,1182.572,1244.457,1193.245,1247.143z M1125.553,1163.502c2.36-6.675,6.154-12.866,9.223-19.224
	c7.039,3.401,153.11,89.756,161.354,94.635c-1.154,1.077-2.708,2.284-4.661,2.443
	C1287.677,1241.095,1131.706,1166.572,1125.553,1163.502z M1249.875,1252.313c6.781-1.923,10.006-0.329,18.69-1.869
	c12.124-2.149,10.949,0.794,17.166-1.01c4.288-1.249,7.961-2.377,11.888-0.365c16.904,8.161,40.147,18.818,43.935,21.035
	c-1.22,0.642-1.424,0.763-2.363,1.315c1.028,0.904,1.381,1.202,2.473,2.136c-0.023,0.575-0.03,1.151-0.034,1.711
	c-5.588-1.186-91.949-19.558-102.925-22.544C1242.474,1252.46,1246.2,1253.366,1249.875,1252.313z M1345.335,1241.472
	c2.074,0.057,5.472-0.81,7.288,5.24c-0.504,0.48-0.597,0.552-1.363,1.388c-0.228-0.033-0.57-0.082-0.919-0.132
	C1348.843,1245.604,1346.703,1243.805,1345.335,1241.472z M1356.05,1223.329c-1.254-1.453-2.511-2.917-3.741-4.384
	C1342.665,1206.695,1346.258,1211.336,1356.05,1223.329z M1354.942,1314.154c0.469,0.479,0.963,0.977,1.46,1.481
	c-0.481,1.973-0.609,2.59-0.808,3.567c1.689-0.479,1.947-0.568,3.614-1.078c1.49,1.032,0.422,3.01,1.34,4.649
	c-1.47,4.825-63.055,108.049-71.682,123.893c-2.164-1.377-4.175-2.465-6.554-2.16c-3.219-0.443-5.356,2.689-8.44,2.259
	c-2.933,0.229-5.311-2.415-8.366-2.25c-3.496-0.322-6.28,2.272-9.703,1.786c-3.219,0.319-5.616-2.78-8.912-2.537
	c-3.364-0.418-5.875,2.415-9.112,1.96c-2.249,0.158-3.856-1.714-6.016-2.371c-6.989-1.562-7.616,2.978-12.415,1.566
	c-1.622-0.675-2.966-2.099-4.785-2.426c-0.528-0.12-4.102-0.399-4.656-0.447c3.324-3.792,138.835-123.58,141.723-127.672
	C1352.724,1314.285,1353.806,1314.203,1354.942,1314.154z M1364.99,1323.738c0.316,1.398,0.606,2.532,0.693,2.99
	c1.651-1.153,2.733-2.416,4.192-1.768c-4.233,18.847-25.207,110.419-28.076,122.341c-8.864-4.87-10.465,0.135-14.326,0.232
	c-1.734,0.014-3.703,0.281-5.021-0.942c-2.938-2.814-8.198-2.896-11.26-0.171c-1.436,1.329-3.618,1.069-5.15,0.746
	c-1.907-1.053-3.722-2.952-6.264-2.649c-2.557-0.446-4.621,0.85-6.757,2.16C1303.792,1428.064,1359.002,1333.568,1364.99,1323.738z
	 M1372.516,1328.988c0.237-0.579,0.503-1.168,0.735-1.678c0.522,4.179-0.763,7.616-4.551,37.912l0.028,0.01
	c-1.582,3.102-2.348,6.328-1.239,9.995c-1.434,7.123-8.605,64.224-10.092,71.083c-5.163-2.664-8.641,0.095-11.638,1.089
	C1348.241,1434.902,1371.848,1334.534,1372.516,1328.988z M1353.687,997.42c1.292,11.746,12.385,132.952,21.659,231.884
	c-0.399,0.198-0.474,0.259-0.644,0.403c-0.242,0.204-0.742,0.625-3.306,2.201c-4.178-2.077-0.59,1.165-18.379-20.776
	c-8.554-10.554-4.659-5.745-11.092-19.631c-72.02-167.481-71.955-167.301-73.241-170.536l-0.259-0.647
	C1305.859,1003.31,1344.891,997.326,1353.687,997.42z M1223.985,1045.395c3.401,1.384,7.043,2.646,9.677,5.245
	c2.23,2.364,1.257,5.936,1.641,8.96c0.657,2.014,4.277,1.291,5.279,1.186c2.576-0.216,3.786-2.869,4.059-5.276
	c0.862-6.754-1.368-13.277-3.524-19.585l-0.256-0.748c3.199-3.134,20.478-12.007,24.206-13.057
	c2.71,6.196,66.819,154.793,72.659,169.618c-8.365-9.39-99.233-123.651-116.175-144.499
	C1222.322,1046.626,1223.13,1046.013,1223.985,1045.395z M1199.731,1064.253c4.56,5.197,116.242,137.71,143.054,169.698
	c-1.23,0.267-2.327,0.499-3.342,0.682c-3.878-3.369-141.831-158.183-146.96-164.099
	C1194.723,1068.293,1197.04,1065.978,1199.731,1064.253z M1172.965,992.081c2.513-0.471,5.009,0.227,7.373,1.05
	c-0.652,0.393-1.358,0.838-2.194,1.415c-10.051-4.124-15.769-0.19-21.939,1.754c-0.904-1.353-1.685-2.799-2.356-4.296
	C1160.36,992.131,1166.648,993.192,1172.965,992.081z M1182.211,1080.442c2.376-2.463,4.831-5.008,7.49-7.246
	c5.76,6.105,137.668,153.948,144.05,161.448c-1.424,0.435-1.419,0.391-3.651,1.183c-9.603,3.401-8.96,0.145-14.024,0.719
	c-3.171,0.105-5.322,2.812-8.38,2.999c-4.181-0.39,0.651,2.459-66.87-37.422c-109.695-64.792-102.822-60.392-103.704-61.394
	C1137.823,1138.316,1152.932,1110.79,1182.211,1080.442z M1166.122,662.484c4.929,0.169,10.285,0.339,16.124,0.518
	C1179.596,668.526,1182.109,668.027,1166.122,662.484z M1232.015,627.138c-2.368,5.948-8.898,22.997-14.305,25.616
	c-4.363,0.638-8.927-0.763-12.627-1.927c0.015-2.485,0.844-5.107,0.011-7.608c-0.907-2.117-3.399-2.086-5.572-1.15
	c0.193,2.913,0.478,5.635,0.244,8.338c-11.608-0.817-23.299-2.183-34.895-3.217c-0.156-3.658,0.035-7.396-0.214-11.078
	C1194.301,626.284,1208.188,629.922,1232.015,627.138z M1125.43,646.463c5.646,4.35,13.215,2.74,17.85-0.592
	c2.471-1.658,5.78-3.47,9.787-5.277c0.341,2.153,0.406,4.421,0.178,6.755c-17.308,7.193-29.363,0.924-32.922-3.557
	C1123.047,644.733,1123.651,645.061,1125.43,646.463z M1093.788,644.379c15.297,13.253,12.119,15.731,61.235,17.697
	c-2.951,6.191-4.305,12.286-4.006,18.126c1.454,19.499-43.396,157.64-50.742,182.077c-4.875-0.555-42.688-0.969-75.56-1.593
	C1048.604,796.263,1049.477,811.402,1093.788,644.379z M1032.49,1288.633c-0.341,0.189-0.669,0.396-0.975,0.63
	c-1.393-1.452-2.433-2.728-3.254-3.992c0.974-2.797,3.1-4.764,3.031-8.133c-0.876-0.018-1.619-0.009-2.586,0.076
	c-0.781-5.887-0.389-10.029-1.079-19.308c-0.155-2.111-0.317-4.292-0.246-6.433l-0.043-0.006
	c3.915-14.265,8.602-31.196,12.32-45.227C1031.483,1248.505,1031.551,1279.55,1032.49,1288.633z M1072.578,991.709
	c-21.938-13.012-68.724-45.815-76.546-56.546c0.428-1.002,15.209-39.655,17.91-47.247c1.646-0.042,2.942-0.121,3.814-0.247
	c17.004,9.3,55.65,49.22,65.007,60.403C1073.942,987.594,1074.477,989.121,1072.578,991.709z M1085.989,930.944
	c-0.835,3.971-1.171,8.183-2.704,12.01c-9.779-11.021-39.894-41.841-57.739-54.671c6.561-0.195,32.301,0.646,43.855,1.934
	c8.422,0.718,15.927,7.501,17.849,16.14C1089.417,914.475,1087.332,922.917,1085.989,930.944z M1100.496,1261.528
	c30.752-1.075,32.549-2.473,38.899-1.623c7.682,1.042,8.281-2.694,18.439-0.893c3.771,0.741,7.203-1.366,10.848-1.403
	c3.567-0.317,7.257,1.4,10.914,0.179c9.782-3.468,12.409,1.241,18.44-1.322c4.529-1.859,9.072-1.25,12.091-0.409
	c2.423,0.6,4.662-0.187,6.829-0.947c4.831-1.696,0.307-3.246,78.769,14.018c46.826,10.304,44.248,9.043,45.744,10.458
	c0.101,0.944,0.09,1.979,0.122,2.94c-3.09,2.06,4.004,0.833-63.125,9.709c-154.811,20.474-91.896,11.548-176.756,20.816
	C1098.693,1288.799,1100.407,1270.872,1100.496,1261.528z M1108.845,1351.167c5.821-1.169,209.816-40.273,212.217-40.427
	c-15.219,7.272-189.353,84.24-195.702,86.953C1122.079,1393.058,1110.468,1361.236,1108.845,1351.167z M1136.842,1420.439
	c-1.911-2.504-8.418-14.946-9.927-19.308c224.72-99.509,209.895-93.555,213.328-93.947
	C1324.05,1316.489,1143.586,1416.98,1136.842,1420.439z M1150.629,1442.668c-6.132-8.761-10.828-16.32-11.812-18.832
	c6.927-3.918,197.8-110.495,209.296-116.44c-0.217,0.659-0.305,0.978-0.454,1.521c1.554,0.22,2.832,0.159,3.866,0.907
	c-7.014,6.675-81.562,73.235-149.766,134.448c-7.283-5.07-10.021-1.763-13.361-0.568c-9.366,1.068-3.782-4.192-13.78-3.508
	c-2.132,0.031-3.436,1.876-5.074,2.734c-2.276,0.385-3.81,0.038-4.704-1.054c-1.501-1.737-3.638-2.623-5.778-2.442
	C1155.709,1438.888,1153.376,1441.511,1150.629,1442.668z M1172.431,1470.188c-5.459-5.742-11.583-13.448-17.105-20.968
	c5.52,0.775,10.93,0.101,16.294,0.724c7.099,0.87,14.417-0.323,21.416,1.559c-0.758,1.455-2.045,2.532-3.298,3.571
	C1185.894,1458.262,1175.388,1468.386,1172.431,1470.188z M1175.084,1473.115c19.608-17.877,20.823-18.31,23.698-21.667
	c8.98-1.387,10.905,1.772,15.513,0.985c3.618-0.599,6.873-1.022,10.062-0.146c2.5,0.708,5.179,1.274,7.826,0.635
	c4.061-1.002,7.992-0.827,11.369,0.502c4.151,1.601,8.196-0.999,12.357-0.561c2.428-0.156,4.738,1.013,7.113,1.653
	c3.582,0.896,6.831-1.419,10.286-1.189c3.436-0.116,6.81,1.539,10.469,1.304c-3.268,6.479-39.106,67.224-41.971,72.05
	C1231.334,1521.713,1191.981,1494.03,1175.084,1473.115z M1218.274,1589.868c10.012,5.275,20.241,10.022,30.641,14.258
	C1238.453,1599.875,1228.228,1595.122,1218.274,1589.868z M1316.468,1556.424c-12.383-1.632-53.47-16.429-71.195-27.775
	c2.147-4.957,38.656-65.962,43.3-74.786c5.485-0.604,6.724,1.288,14.245,0.455c3.958-0.438,5.986-0.339,9.721-0.011
	c8.745,0.763,12.584-0.903,20.098,0.676c1.96,0.415,3.177,0.663,7.683-0.353C1317.028,1553.31,1317.936,1554.908,1316.468,1556.424z
	 M1332.293,1559.92c-3.942-0.843-7.961-1.253-11.746-2.483c0.888-5.011,12.568-55.237,23.436-102.9
	c5.877-0.887,4.245,1.451,12.4,0.516c-4.594,35.378-9.621,71.22-14.307,106.086
	C1338.792,1561.432,1335.51,1560.382,1332.293,1559.92z M1345.807,1562.125c0.026-1.012,14.041-107.633,14.868-108.205
	c3.539-0.2,6.867,1.394,10.419,2.071c2.231,2.477,0.007,2.018,3.094,4.925c2.227,2.099,0.771,1.395,3.291,3.725
	c0.86,0.795,1.51,1.394,1.981,2.449c0.731,0.098,1.464,0.191,2.182,0.313c0.26,0.567,0.572,1.207,0.848,1.779
	c0.64-0.125,1.168-0.223,1.851-0.313c0.327,0.329,1.058,1.073,1.439,1.459c0.7-0.031,1.32-0.053,2.038-0.038
	c0.339,0.67,0.682,1.323,1.028,1.975c0.582-0.482,1.254-1.068,1.897-1.433c1.017-0.11,0.886,1.226,1.806,2.518
	c0.58-0.753,1.21-1.583,1.816-2.299c1.202,1.019,1.673,1.472,2.348,2.141c0.379-0.783,0.717-1.477,1.134-2.257
	c0.026,0.028,0.182,0.2,0.253,0.277c0.062,8.382,7.672,82.266,8.021,91.791C1402.233,1563.898,1376.444,1565.588,1345.807,1562.125z
	 M1410.108,1562.75c-0.854-5.972-8.096-84.668-8.471-91.944c0.411,0.313,1.235,0.94,1.648,1.251
	c0.245-0.947,0.464-1.783,0.761-2.745c1.039,0.248,2.017,0.906,2.931,1.471c0.087-1,0.168-1.895,0.315-2.958
	c0.96,0.324,1.817,0.652,2.733,1.011c0.064-0.925,0.133-1.905,0.235-2.827c0.937,0.29,1.798,0.598,2.713,0.927
	c-0.1-1.055-0.218-2.181,0.007-3.286c0.724,0.053,1.666,0.158,2.401,0.236c-0.007-1,0-1.931,0.068-3.031
	c0.805,0.186,1.625,0.404,2.419,0.619c-0.179-1-0.36-1.993-0.529-3.094c0.887-0.109,1.53-0.165,2.327-0.224
	c-0.349-1.086-0.622-1.83-0.734-2.568c0.176-0.713,1.32-0.756,2.32-1.336c-0.352-0.812-0.621-1.42-0.962-2.291
	c0.319-0.208,2.163-1.338,2.356-1.504c-0.583-0.655-0.852-0.949-1.492-1.675c0.537-0.468,1.098-0.909,1.661-1.336
	c-0.422-0.887-0.804-1.754-1.197-2.659c0.438-0.844,0.849-1.53,1.317-2.334c-1.522-1.778-1.376-3.452-0.577-5.52
	c-0.376-0.518-0.94-1.3-1.329-1.851c0.361-0.739,0.664-1.276,1.051-1.951c-0.648-0.372-1.176-0.661-1.847-1.026
	c0.151-0.749,0.269-1.214,0.435-1.87c-1.363-0.744-2.025-1.746-2.09-3.355c-0.484-0.35-0.749-0.544-1.294-0.929
	c0.214-3.697-7.322-8.831-10.943-15.646c-2.136-3.327-3.578-7.539-7.152-9.795c-2.385-1.681-4.95-3.509-5.189-6.411
	c-0.163-1.811-0.474-3.743,0.132-5.462c1.358-1.155,3.98-1.159,6.753-1.162c11.615-0.017,8.35-1.938,11.067-8.808
	c1.98-5.02,1.451-5.727-0.706-10.025c-1.938-3.857-3.929-7.84-2.612-11.979c5.093,10.444,77.41,179.517,80.143,186.248
	C1463.063,1553.551,1436.598,1560.225,1410.108,1562.75z M1492.15,1541.097c-6.257-14.624-74.815-174.379-80.991-188.064
	c2.033-2.196,2.946-5.449,5.697-6.49c1.157,3.082,3.111,13.137,7.253,13.136c2.041,0,3.599-1.783,12.182-5.453
	c1.103-0.472,2.212-0.952,3.307-1.45c17.102,19.528,120.598,134.898,126.332,141.821
	C1540.246,1518.692,1498.15,1540.204,1492.15,1541.097z M1569.134,1491.809c-1.255-0.129,2.555,3.301-126.131-140.525l0.172-0.141
	l-0.075-0.114c2.621-1.448,4.974-3.164,6.637-5.477c0.713-0.969,0.851-2.118,0.985-3.229c0.404-3.359,1.054-2.906,4.99-9.277
	c9.391,5.209,158.841,93.301,164.854,97.167C1598.716,1465.957,1571.382,1490.314,1569.134,1491.809z M1634.716,1404.275
	c-6.8-2.882-166.964-78.655-173.12-81.901c2.528-5.26,4.548-10.587,6.031-15.89c5.182,0.819,69.582,15.014,187.683,40.489
	C1649.352,1373.443,1637.407,1399.875,1634.716,1404.275z M1656.167,1343.27c-6.277-1.107-106.146-22.879-187.224-40.339
	l-0.123-1.014l-0.047-0.002c2.817-12.718,1.385-18.918,1.94-22.384c9.966-1.027,183.373-18.695,192.053-19.257
	C1665.43,1281.006,1661.201,1326.415,1656.167,1343.27z"/>
</svg>
